<svg id="Layer_1" data-name="Layer 1" xmlns="http://www.w3.org/2000/svg" viewBox="0 0 44 44"><defs><style>.cls-1{fill:#fcf8f5;fill-rule:evenodd;}</style></defs><title>user</title><path class="cls-1" d="M33.06,49.37a22,22,0,1,1,22-22A21.94,21.94,0,0,1,33.06,49.37ZM42,43a9.92,9.92,0,0,0-8.9-5.6,10.19,10.19,0,0,0-9,5.6,18,18,0,0,0,9,2.4A17.67,17.67,0,0,0,42,43Zm-8.9-11.6a6,6,0,1,0-6-6A6,6,0,0,0,33.06,31.37Zm0-22a18.05,18.05,0,0,0-18,18,17.82,17.82,0,0,0,5.8,13.2,14.12,14.12,0,0,1,7.6-6.4,10,10,0,1,1,9.2,0,14.05,14.05,0,0,1,7.6,6.4,18,18,0,0,0-12.2-31.2Z" transform="translate(-11.06 -5.37)"/></svg>