<svg id="Layer_1" data-name="Layer 1" xmlns="http://www.w3.org/2000/svg" viewBox="0 0 100 76.3"><defs><style>.cls-1{fill:#fcf8f5;fill-rule:evenodd;}</style></defs><title>bookshelf</title><path class="cls-1" d="M17.47,80.8v1.84H0V80.8Zm0-1.84H0V21H17.47Zm0,5.51v.92a2.76,2.76,0,0,1-2.76,2.76h-12A2.75,2.75,0,0,1,0,85.39v-.92Zm0-67.11V19.2H0V17.36Zm0-1.83H0v-.92a2.75,2.75,0,0,1,2.76-2.76h12a2.76,2.76,0,0,1,2.76,2.76ZM3.68,22.88v9.19H13.79V22.88Zm34,57.92v1.84H20.22V80.8Zm0-1.84H20.22V21H37.69Zm0,5.51v.92a2.75,2.75,0,0,1-2.76,2.76H23a2.76,2.76,0,0,1-2.76-2.76v-.92Zm0-67.11V19.2H20.22V17.36Zm0-1.83H20.22v-.92A2.76,2.76,0,0,1,23,11.85h12a2.75,2.75,0,0,1,2.76,2.76ZM23.9,22.88v9.19H34V22.88Zm34,57.92v1.84H40.45V80.8Zm0-1.84H40.45V21H57.92Zm0,5.51v.92a2.76,2.76,0,0,1-2.76,2.76H43.21a2.75,2.75,0,0,1-2.76-2.76v-.92Zm0-67.11V19.2H40.45V17.36Zm0-1.83H40.45v-.92a2.75,2.75,0,0,1,2.76-2.76H55.16a2.76,2.76,0,0,1,2.76,2.76ZM44.13,22.88v9.19H54.24V22.88ZM98.26,76l.63,1.73-16.41,6-.63-1.72Zm-.63-1.73-16.41,6L61.41,25.78l16.41-6Zm1.89,5.19.31.86a2.76,2.76,0,0,1-1.65,3.54L87,87.89a2.74,2.74,0,0,1-3.53-1.64l-.32-.87Zm-23-63.06.62,1.72-16.41,6-.63-1.73Zm-.63-1.73-16.42,6-.31-.86a2.77,2.77,0,0,1,1.65-3.54l11.23-4.08a2.74,2.74,0,0,1,3.53,1.64ZM65.49,26.25l3.15,8.63,9.5-3.45L75,22.79Z" transform="translate(0 -11.85)"/></svg>