<svg id="Layer_1" data-name="Layer 1" xmlns="http://www.w3.org/2000/svg" viewBox="0 0 6553.99 6571.42"><defs><style>.cls-1{fill:#fff;}.cls-2{fill:#73363d;}.cls-3{isolation:isolate;font-size:3.93px;font-family:HelveticaNeue-Bold, Helvetica Neue;font-weight:700;}.cls-4{letter-spacing:-0.02em;}.cls-5{letter-spacing:-0.02em;}.cls-6{letter-spacing:0em;}</style></defs><title>plus</title><rect class="cls-1" x="1065.85" y="1073.52" width="4520.63" height="4406.95"/><path class="cls-2" d="M5594.11,959.49c-1279.57-1279.58-3354.26-1279.58-4634.62,0-1279.58,1280.36-1279.58,3355.05,0,4634.62,1280.36,1279.58,3355.05,1279.58,4634.62,0S6873.69,2239.85,5594.11,959.49ZM1691.68,2651.17h959.49V1691.68c0-344.47,281.55-626,626-626s625.24,281.55,625.24,626v959.49h959.49c344.47,0,626,281.55,626,626s-281.55,625.24-626,625.24H3902.43v959.49c0,344.47-280.77,626-625.24,626s-626-281.55-626-626V3902.43H1691.68c-344.47,0-626-280.77-626-625.24S1347.21,2651.17,1691.68,2651.17Z" transform="translate(0.2 0.2)"/><text class="cls-3" transform="translate(0.2 6565.59)">C<tspan class="cls-4" x="2.91" y="0">r</tspan><tspan x="4.37" y="0">eated by sandi</tspan></text><text class="cls-3" transform="translate(0.2 6569.53)">f<tspan class="cls-5" x="1.31" y="0">r</tspan><tspan x="2.77" y="0">om the Noun P</tspan><tspan class="cls-4" x="30.59" y="0">r</tspan><tspan class="cls-6" x="32.05" y="0">oject</tspan></text></svg>